HIERARCHY
ROOT	Character1_Hips
{
	OFFSET	0.000	0.000	0.000
	CHANNELS	6	Xposition	Yposition	Zposition	Yrotation	Xrotation	Zrotation
	JOINT	Character1_LeftUpLeg
	{
		OFFSET	8.100	0.000	-0.000
		CHANNELS	3	Yrotation	Xrotation	Zrotation
		JOINT	Character1_LeftLeg
		{
			OFFSET	-0.000	-43.200	0.000
			CHANNELS	3	Yrotation	Xrotation	Zrotation
			JOINT	Character1_LeftFoot
			{
				OFFSET	0.062	-43.300	0.000
				CHANNELS	3	Yrotation	Xrotation	Zrotation
				End Site
				{
					OFFSET	-0.000	-6.231	13.152
				}
			}
		}
	}
	JOINT	Character1_RightUpLeg
	{
		OFFSET	-8.100	0.000	-0.000
		CHANNELS	3	Yrotation	Xrotation	Zrotation
		JOINT	Character1_RightLeg
		{
			OFFSET	0.000	-43.200	0.000
			CHANNELS	3	Yrotation	Xrotation	Zrotation
			JOINT	Character1_RightFoot
			{
				OFFSET	-0.063	-43.300	0.000
				CHANNELS	3	Yrotation	Xrotation	Zrotation
				End Site
				{
					OFFSET	0.001	-6.231	13.152
				}
			}
		}
	}
	JOINT	Character1_Spine
	{
		OFFSET	0.000	8.484	-3.948
		CHANNELS	3	Yrotation	Xrotation	Zrotation
		JOINT	Character1_Spine1
		{
			OFFSET	0.443	16.028	0.344
			CHANNELS	3	Yrotation	Xrotation	Zrotation
			JOINT	Character1_Spine2
			{
				OFFSET	0.443	16.028	0.344
				CHANNELS	3	Yrotation	Xrotation	Zrotation
				JOINT	Character1_LeftShoulder
				{
					OFFSET	7.483	8.202	2.259
					CHANNELS	3	Yrotation	Xrotation	Zrotation
					JOINT	Character1_LeftArm
					{
						OFFSET	13.460	-0.000	0.000
						CHANNELS	3	Yrotation	Xrotation	Zrotation
						JOINT	Character1_LeftForeArm
						{
							OFFSET	26.100	-0.000	0.000
							CHANNELS	3	Yrotation	Xrotation	Zrotation
							JOINT	Character1_LeftHand
							{
								OFFSET	28.740	-0.000	-0.000
								CHANNELS	3	Yrotation	Xrotation	Zrotation
								JOINT	Character1_LeftHandIndex1
								{
									OFFSET	8.088	-0.104	2.579
									CHANNELS	3	Yrotation	Xrotation	Zrotation
									JOINT	Character1_LeftHandIndex2
									{
										OFFSET	4.560	0.000	-0.159
										CHANNELS	3	Yrotation	Xrotation	Zrotation
										JOINT	Character1_LeftHandIndex3
										{
											OFFSET	2.805	0.000	-0.098
											CHANNELS	3	Yrotation	Xrotation	Zrotation
											End Site
											{
												OFFSET	1.956	0.000	-0.068
											}
										}
									}
								}
								JOINT	Character1_LeftHandMiddle1
								{
									OFFSET	8.245	-0.104	0.552
									CHANNELS	3	Yrotation	Xrotation	Zrotation
									JOINT	Character1_LeftHandMiddle2
									{
										OFFSET	4.765	0.000	-0.000
										CHANNELS	3	Yrotation	Xrotation	Zrotation
										JOINT	Character1_LeftHandMiddle3
										{
											OFFSET	3.143	0.000	-0.000
											CHANNELS	3	Yrotation	Xrotation	Zrotation
											End Site
											{
												OFFSET	2.006	0.000	-0.000
											}
										}
									}
								}
								JOINT	Character1_LeftHandPinky1
								{
									OFFSET	7.042	-0.546	-3.102
									CHANNELS	3	Yrotation	Xrotation	Zrotation
									JOINT	Character1_LeftHandPinky2
									{
										OFFSET	3.549	-0.000	-0.000
										CHANNELS	3	Yrotation	Xrotation	Zrotation
										JOINT	Character1_LeftHandPinky3
										{
											OFFSET	2.231	-0.000	0.000
											CHANNELS	3	Yrotation	Xrotation	Zrotation
											End Site
											{
												OFFSET	1.667	0.000	0.000
											}
										}
									}
								}
								JOINT	Character1_LeftHandRing1
								{
									OFFSET	7.805	-0.345	-1.412
									CHANNELS	3	Yrotation	Xrotation	Zrotation
									JOINT	Character1_LeftHandRing2
									{
										OFFSET	4.360	0.000	-0.000
										CHANNELS	3	Yrotation	Xrotation	Zrotation
										JOINT	Character1_LeftHandRing3
										{
											OFFSET	2.812	-0.000	-0.000
											CHANNELS	3	Yrotation	Xrotation	Zrotation
											End Site
											{
												OFFSET	1.923	0.000	-0.000
											}
										}
									}
								}
								JOINT	Character1_LeftHandThumb1
								{
									OFFSET	2.107	-0.104	2.823
									CHANNELS	3	Yrotation	Xrotation	Zrotation
									JOINT	Character1_LeftHandThumb2
									{
										OFFSET	3.503	-0.000	2.022
										CHANNELS	3	Yrotation	Xrotation	Zrotation
										JOINT	Character1_LeftHandThumb3
										{
											OFFSET	3.070	0.000	0.000
											CHANNELS	3	Yrotation	Xrotation	Zrotation
											End Site
											{
												OFFSET	2.667	0.000	-0.000
											}
										}
									}
								}
							}
						}
					}
				}
				JOINT	Character1_Neck
				{
					OFFSET	0.443	16.028	0.344
					CHANNELS	3	Yrotation	Xrotation	Zrotation
					End Site
					{
						OFFSET	-0.000	10.452	0.000
					}
				}
				JOINT	Character1_RightShoulder
				{
					OFFSET	-6.597	8.202	2.259
					CHANNELS	3	Yrotation	Xrotation	Zrotation
					JOINT	Character1_RightArm
					{
						OFFSET	-13.460	-0.001	-0.000
						CHANNELS	3	Yrotation	Xrotation	Zrotation
						JOINT	Character1_RightForeArm
						{
							OFFSET	-26.100	-0.000	-0.000
							CHANNELS	3	Yrotation	Xrotation	Zrotation
							JOINT	Character1_RightHand
							{
								OFFSET	-28.740	-0.000	-0.000
								CHANNELS	3	Yrotation	Xrotation	Zrotation
								JOINT	Character1_RightHandIndex1
								{
									OFFSET	-8.088	-0.104	2.579
									CHANNELS	3	Yrotation	Xrotation	Zrotation
									JOINT	Character1_RightHandIndex2
									{
										OFFSET	-4.560	0.000	0.159
										CHANNELS	3	Yrotation	Xrotation	Zrotation
										JOINT	Character1_RightHandIndex3
										{
											OFFSET	-2.805	-0.000	0.098
											CHANNELS	3	Yrotation	Xrotation	Zrotation
											End Site
											{
												OFFSET	-1.956	0.000	0.068
											}
										}
									}
								}
								JOINT	Character1_RightHandMiddle1
								{
									OFFSET	-8.245	-0.104	0.552
									CHANNELS	3	Yrotation	Xrotation	Zrotation
									JOINT	Character1_RightHandMiddle2
									{
										OFFSET	-4.762	0.000	0.166
										CHANNELS	3	Yrotation	Xrotation	Zrotation
										JOINT	Character1_RightHandMiddle3
										{
											OFFSET	-3.141	0.000	0.110
											CHANNELS	3	Yrotation	Xrotation	Zrotation
											End Site
											{
												OFFSET	-2.003	0.000	0.070
											}
										}
									}
								}
								JOINT	Character1_RightHandPinky1
								{
									OFFSET	-7.042	-0.546	-3.102
									CHANNELS	3	Yrotation	Xrotation	Zrotation
									JOINT	Character1_RightHandPinky2
									{
										OFFSET	-3.546	0.000	0.124
										CHANNELS	3	Yrotation	Xrotation	Zrotation
										JOINT	Character1_RightHandPinky3
										{
											OFFSET	-2.229	0.000	0.078
											CHANNELS	3	Yrotation	Xrotation	Zrotation
											End Site
											{
												OFFSET	-1.667	0.000	0.058
											}
										}
									}
								}
								JOINT	Character1_RightHandRing1
								{
									OFFSET	-7.805	-0.345	-1.413
									CHANNELS	3	Yrotation	Xrotation	Zrotation
									JOINT	Character1_RightHandRing2
									{
										OFFSET	-4.357	0.000	0.152
										CHANNELS	3	Yrotation	Xrotation	Zrotation
										JOINT	Character1_RightHandRing3
										{
											OFFSET	-2.810	-0.000	0.098
											CHANNELS	3	Yrotation	Xrotation	Zrotation
											End Site
											{
												OFFSET	-1.921	0.000	0.067
											}
										}
									}
								}
								JOINT	Character1_RightHandThumb1
								{
									OFFSET	-2.107	-0.104	2.823
									CHANNELS	3	Yrotation	Xrotation	Zrotation
									JOINT	Character1_RightHandThumb2
									{
										OFFSET	-3.503	-0.000	2.022
										CHANNELS	3	Yrotation	Xrotation	Zrotation
										JOINT	Character1_RightHandThumb3
										{
											OFFSET	-3.070	-0.000	0.000
											CHANNELS	3	Yrotation	Xrotation	Zrotation
											End Site
											{
												OFFSET	-2.665	-0.000	-0.000
											}
										}
									}
								}
							}
						}
					}
				}
			}
		}
	}
}
MOTION
Frames:	7
Frame Time:	0.010
0.359	91.972	4.492	-83.964	-38.579	38.229	22.599	-57.471	-29.684	-72.132	-26.196	-102.166	138.401	41.041	-0.610	47.410	-30.124	-63.998	48.324	-11.875	108.789	-124.595	11.108	-13.862	-4.309	1.550	-12.289	-8.927	2.145	-24.869	0.000	-0.000	-0.000	-48.430	49.092	-41.776	-22.158	-72.763	-30.541	-63.003	-5.748	-8.070	36.125	-1.898	-5.554	358.000	-0.000	-0.000	0.000	0.000	-0.000	-0.000	-0.000	0.000	-0.004	0.000	-0.000	0.000	0.000	0.000	0.000	-0.000	0.000	-0.000	0.000	0.001	0.000	-0.000	0.000	-0.000	0.000	0.000	-0.004	0.000	-0.000	0.000	-0.000	0.000	0.000	-0.000	0.000	-0.000	0.000	-0.000	0.000	-0.000	-0.000	-0.000	0.000	0.000	-23.265	16.666	0.666	30.603	57.136	32.021	18.027	-46.979	35.353	31.551	54.478	2.487	1.139	-0.652	-0.197	358.000	-0.000	0.000	-0.000	-0.000	-0.000	0.000	0.000	-0.000	358.000	0.000	0.000	-0.000	-0.000	-0.000	0.000	0.000	0.000	358.000	0.000	0.001	-0.000	0.000	-0.000	0.000	0.000	-0.000	358.000	0.000	-0.000	0.000	-0.000	0.000	0.000	0.000	0.000	0.000	-0.000	0.000	0.000	0.000	-0.001	-0.000	-0.000	0.000	
0.361	91.970	4.490	-83.948	-38.581	38.223	22.612	-57.463	-29.686	-72.137	-26.207	-102.164	138.390	41.040	-0.615	47.409	-30.120	-64.000	48.321	-11.872	108.792	-124.607	11.098	-13.872	-4.307	1.549	-12.287	-8.922	2.144	-24.865	0.000	-0.000	-0.000	-48.406	49.102	-41.776	-22.097	-72.806	-30.591	-63.007	-5.756	-8.114	36.121	-1.908	-5.553	358.000	0.000	-0.000	0.000	-0.000	0.000	-0.000	0.000	-0.000	-0.004	0.000	-0.000	0.000	0.000	0.000	-0.000	-0.000	-0.000	0.000	-0.000	0.001	-0.000	0.000	0.000	0.000	-0.000	-0.000	-0.004	-0.000	0.000	0.000	-0.000	0.000	0.000	0.000	-0.000	-0.000	0.000	-0.000	0.000	-0.000	-0.000	0.000	0.000	0.000	-23.241	16.652	0.680	30.681	57.153	32.051	18.228	-46.944	35.215	31.950	55.008	2.507	1.152	-0.944	-0.162	358.000	-0.000	-0.000	0.000	-0.000	0.000	0.000	0.000	-0.000	358.000	-0.000	0.000	-0.000	-0.000	0.000	0.000	0.000	-0.000	358.000	0.000	0.001	0.000	0.000	0.000	0.000	0.000	-0.000	358.000	-0.000	-0.000	-0.000	-0.000	0.000	0.000	0.000	-0.000	0.000	0.000	0.000	-0.000	0.000	-0.001	0.000	-0.000	0.000	
0.364	91.968	4.489	-83.928	-38.581	38.218	22.621	-57.463	-29.695	-72.135	-26.207	-102.165	138.374	41.037	-0.624	47.407	-30.117	-64.007	48.324	-11.870	108.795	-124.611	11.093	-13.868	-4.306	1.550	-12.287	-8.921	2.145	-24.865	0.000	-0.000	-0.000	-48.376	49.111	-41.765	-22.107	-72.812	-30.588	-63.016	-5.765	-8.111	36.118	-1.916	-5.558	358.000	-0.000	-0.000	0.000	0.000	0.000	-0.000	-0.000	0.000	-0.004	-0.000	0.000	-0.000	0.000	0.000	0.000	-0.000	-0.000	0.000	0.000	0.001	0.000	0.000	0.000	0.000	-0.000	0.000	-0.004	0.000	0.000	0.000	-0.000	0.000	-0.000	-0.000	0.000	0.000	0.000	0.000	0.000	-0.000	-0.000	-0.000	-0.000	0.000	-23.218	16.638	0.686	30.773	57.166	32.093	18.402	-46.935	35.103	31.779	55.044	2.190	1.305	-0.841	-0.309	358.000	0.000	0.000	-0.000	0.000	-0.000	0.000	0.000	0.000	358.000	0.000	-0.000	-0.000	-0.000	0.000	-0.000	0.000	-0.000	358.000	0.000	0.001	0.000	-0.000	0.000	0.000	0.000	0.000	358.000	0.000	-0.000	-0.000	-0.000	0.000	0.000	0.000	-0.000	0.000	0.000	0.000	-0.000	0.000	-0.001	0.000	-0.000	0.000	
0.368	91.966	4.489	-83.901	-38.584	38.208	22.624	-57.464	-29.706	-72.130	-26.210	-102.164	138.366	41.033	-0.626	47.400	-30.118	-64.014	48.331	-11.866	108.794	-124.615	11.092	-13.865	-4.308	1.551	-12.286	-8.924	2.147	-24.864	0.000	0.000	-0.000	-48.347	49.117	-41.752	-22.115	-72.814	-30.582	-63.029	-5.769	-8.111	36.112	-1.916	-5.567	358.000	-0.000	-0.000	-0.000	0.000	0.000	0.000	0.000	-0.000	-0.004	-0.000	0.000	-0.000	0.000	0.000	-0.000	-0.000	-0.000	0.000	-0.000	0.001	0.000	0.000	0.000	-0.000	0.000	0.000	-0.004	-0.000	0.000	0.000	-0.000	0.000	-0.000	-0.000	0.000	-0.000	0.000	-0.000	-0.000	0.000	-0.000	0.000	0.000	0.000	-23.154	16.614	0.704	30.873	57.174	32.146	18.543	-46.955	35.017	31.504	55.011	1.791	1.340	-0.769	-0.458	358.000	-0.000	0.000	-0.000	0.000	0.000	0.000	-0.000	0.000	358.000	-0.000	0.000	-0.000	-0.000	0.000	0.000	0.000	0.000	358.000	0.000	0.001	0.000	0.000	0.000	-0.000	-0.000	0.000	358.000	0.000	0.000	-0.000	-0.000	0.000	0.000	0.000	-0.000	-0.000	-0.000	0.000	-0.000	0.000	-0.001	0.000	-0.000	0.000	
0.373	91.964	4.489	-83.871	-38.582	38.199	22.636	-57.468	-29.723	-72.110	-26.200	-102.162	138.361	41.024	-0.607	47.397	-30.120	-64.017	48.336	-11.854	108.791	-124.618	11.087	-13.862	-4.309	1.550	-12.286	-8.926	2.146	-24.862	-0.000	-0.000	0.000	-48.319	49.120	-41.740	-22.132	-72.817	-30.565	-63.040	-5.767	-8.118	36.105	-1.902	-5.573	358.000	-0.000	-0.000	0.000	0.000	-0.000	-0.000	0.000	0.000	-0.004	-0.000	-0.000	0.000	-0.000	0.000	-0.000	0.000	-0.000	0.000	0.000	0.001	-0.000	-0.000	-0.000	0.000	-0.000	0.000	-0.004	0.000	0.000	0.000	-0.000	0.000	0.000	-0.000	0.000	0.000	0.000	0.000	-0.000	-0.000	-0.000	0.000	-0.000	0.000	-23.123	16.603	0.716	30.953	57.179	32.194	18.687	-47.006	34.939	31.205	54.895	1.375	1.200	-0.670	-0.707	358.000	0.000	0.000	-0.000	-0.000	-0.000	0.000	0.000	0.000	358.000	0.000	0.000	0.000	0.000	0.000	0.000	0.000	-0.000	358.000	0.000	0.001	0.000	-0.000	-0.000	-0.000	0.000	0.000	358.000	-0.000	-0.000	-0.000	-0.000	0.000	0.000	0.000	0.000	0.000	0.000	0.000	-0.000	-0.000	-0.001	0.000	0.000	0.000	
0.379	91.961	4.490	-83.833	-38.579	38.186	22.647	-57.475	-29.745	-72.101	-26.203	-102.162	138.355	41.019	-0.603	47.393	-30.125	-64.034	48.343	-11.849	108.791	-124.621	11.085	-13.856	-4.313	1.550	-12.285	-8.935	2.145	-24.860	0.000	-0.000	-0.000	-48.277	49.121	-41.724	-22.149	-72.818	-30.542	-63.052	-5.765	-8.137	36.103	-1.889	-5.591	358.000	-0.000	-0.000	0.000	-0.000	-0.000	-0.000	-0.000	0.000	-0.004	-0.000	0.000	0.000	-0.000	0.000	-0.000	-0.000	-0.000	-0.000	-0.000	0.001	0.000	-0.000	0.000	0.000	-0.000	-0.000	-0.004	-0.000	0.000	0.000	-0.000	0.000	-0.000	-0.000	0.000	-0.000	-0.000	0.000	-0.000	0.000	-0.000	0.000	-0.000	0.000	-23.091	16.595	0.727	31.024	57.179	32.235	18.759	-47.090	34.905	30.846	54.733	0.903	0.447	-0.744	-1.644	358.000	0.000	0.000	-0.000	-0.000	-0.000	0.000	0.000	0.000	358.000	0.000	-0.000	0.000	-0.000	0.000	-0.000	0.000	-0.000	358.000	0.000	0.001	0.000	-0.000	-0.000	0.000	0.000	0.000	358.000	0.000	-0.000	-0.000	-0.000	0.000	0.000	0.000	-0.000	0.000	0.000	0.000	0.000	-0.000	-0.001	-0.000	-0.000	0.000	
0.387	91.957	4.494	-83.794	-38.574	38.173	22.663	-57.483	-29.770	-72.095	-26.203	-102.161	138.347	41.012	-0.599	47.390	-30.129	-64.051	48.348	-11.844	108.792	-124.623	11.081	-13.852	-4.318	1.555	-12.281	-8.945	2.154	-24.853	0.000	-0.000	-0.000	-48.245	49.105	-41.703	-22.179	-72.821	-30.508	-63.061	-5.760	-8.153	36.096	-1.868	-5.602	358.000	-0.000	-0.000	0.000	0.000	-0.000	-0.000	0.000	0.000	-0.004	-0.000	0.000	-0.000	0.000	-0.000	0.000	-0.000	-0.000	-0.000	-0.000	0.001	0.000	-0.000	-0.000	0.000	0.000	-0.000	-0.004	-0.000	-0.000	0.000	-0.000	-0.000	0.000	-0.000	-0.000	-0.000	-0.000	-0.000	0.000	-0.000	-0.000	-0.000	0.000	0.000	-23.063	16.580	0.729	31.055	57.170	32.243	18.782	-47.228	34.900	30.299	54.558	0.306	0.008	-0.787	-2.100	358.000	0.000	0.000	-0.000	-0.000	0.000	0.000	-0.000	-0.000	358.000	0.000	0.000	0.000	-0.000	0.000	0.000	0.000	-0.000	358.000	0.000	0.001	0.000	-0.000	-0.000	0.000	-0.000	-0.000	358.000	0.000	0.000	0.000	-0.000	0.000	0.000	0.000	-0.000	0.000	-0.000	0.000	0.000	0.000	-0.001	0.000	0.000	0.000	
